# File produced by Open Asset Import Library (http://www.assimp.sf.net)
# (assimp v3.1.202510665)

mtllib BOTTLE.mtl

# vertex positions
v 0.000000 3.094612 -13.996154
v 0.000000 47.701637 -13.996160
v 9.216944 47.701641 -10.178376
v 9.216944 3.094616 -10.178370
v 13.034728 47.701641 -0.961432
v 13.034728 3.094616 -0.961425
v 9.216944 47.701641 8.255512
v 9.216944 3.094616 8.255519
v -0.000001 47.701645 12.073296
v -0.000001 3.094616 12.073301
v -9.216944 47.701641 8.255514
v -9.216944 3.094616 8.255521
v -13.034728 47.701641 -0.961433
v -13.034728 3.094616 -0.961426
v -4.211792 54.200638 -5.173226
v -5.956373 54.200638 -0.961434
v -4.398086 76.701332 -0.961438
v -3.109916 76.701332 -4.071355
v -9.216947 47.701641 -10.178374
v -9.216947 3.094616 -10.178368
v 0.000000 0.214115 -10.292850
v 0.000004 0.214115 -0.961425
v -6.598315 0.214115 -7.559738
v -0.000000 54.200638 -6.917807
v 4.211792 54.200638 -5.173226
v 5.956373 54.200638 -0.961434
v 4.211792 54.200638 3.250358
v -0.000001 54.200638 4.994938
v -4.211791 54.200638 3.250358
v 6.598315 0.214115 -7.559740
v 9.331424 0.214115 -0.961425
v 6.598315 0.214115 5.636889
v -0.000001 0.214115 8.370001
v -6.598313 0.214115 5.636889
v -9.331424 0.214115 -0.961425
v 0.000001 76.701332 -5.359525
v -3.876642 77.912292 -4.838081
v 0.000002 77.912292 -6.443840
v 0.000001 76.701332 3.436649
v -3.109915 76.701332 2.148480
v 4.398089 76.701332 -0.961437
v 3.109919 76.701332 2.148480
v 3.109919 76.701332 -4.071355
v -5.482399 77.912292 -0.961438
v -3.876641 77.912292 2.915206
v -3.876641 80.252090 2.915205
v -5.482399 80.252090 -0.961438
v 3.876646 77.912292 2.915206
v 0.000001 77.912292 4.520963
v 3.876646 77.912292 -4.838081
v 5.482404 77.912292 -0.961437
v 3.876646 80.252090 -4.838081
v 0.000002 80.252090 -6.443840
v 0.000002 81.497253 -5.411557
v 3.146711 81.497253 -4.108148
v 3.876646 80.252090 2.915205
v 0.000001 80.252090 4.520963
v 5.482404 80.252090 -0.961438
v -3.876642 80.252090 -4.838081
v 0.000004 81.497253 -0.961438
v 4.450120 81.497253 -0.961438
v -3.146707 81.497253 -4.108148
v -3.146706 81.497253 2.185271
v -4.450117 81.497253 -0.961439
v 3.146711 81.497253 2.185271
v 0.000001 81.497253 3.488679

# UV coordinates
vt 0.309232 0.001929
vt 0.309232 0.574517
vt 0.218660 0.572588
vt 0.218660 0.000000
vt 0.090572 0.572588
vt 0.090572 0.000000
vt 0.000000 0.574517
vt 0.000000 0.001929
vt 0.309232 0.574517
vt 0.309232 0.001929
vt 0.437320 0.001929
vt 0.437320 0.574517
vt 0.527892 0.000000
vt 0.527892 0.572588
vt 0.874641 0.000000
vt 0.874641 0.572588
vt 0.746553 0.572588
vt 0.746553 0.000000
vt 0.749269 0.575033
vt 0.790663 0.574517
vt 0.795768 0.863792
vt 0.765203 0.864173
vt 0.746553 0.001929
vt 0.746553 0.574516
vt 0.655981 0.572588
vt 0.655981 0.000000
vt 0.527892 0.572588
vt 0.527892 0.000000
vt 0.527892 0.639356
vt 0.638580 0.685205
vt 0.527892 0.731053
vt 0.907723 0.924003
vt 0.907723 0.865471
vt 0.991686 0.830693
vt 0.991686 0.958781
vt 0.992934 0.609295
vt 0.992934 0.667826
vt 0.907723 0.702605
vt 0.907723 0.574517
vt 1.000000 0.034778
vt 1.000000 0.093310
vt 0.916038 0.128088
vt 0.916038 0.000000
vt 0.633466 0.889203
vt 0.633466 0.830671
vt 0.718677 0.795893
vt 0.718677 0.923981
vt 0.916038 0.221398
vt 0.916038 0.162867
vt 1.000000 0.128088
vt 1.000000 0.256176
vt 0.959852 0.452401
vt 0.959852 0.510932
vt 0.874641 0.545711
vt 0.874641 0.417622
vt 0.907723 0.795915
vt 0.907723 0.737383
vt 0.991686 0.702605
vt 0.991686 0.830693
vt 0.959852 0.324313
vt 0.959852 0.382844
vt 0.874641 0.417622
vt 0.874641 0.289534
vt 0.265304 0.774981
vt 0.265304 0.683284
vt 0.309232 0.665089
vt 0.309232 0.793177
vt 0.200465 0.839821
vt 0.218660 0.883749
vt 0.108768 0.839821
vt 0.090572 0.883749
vt 0.043928 0.774981
vt 0.000000 0.793177
vt 0.043928 0.683284
vt 0.000000 0.665089
vt 0.108768 0.618445
vt 0.090572 0.574517
vt 0.200465 0.618445
vt 0.218660 0.574517
vt 0.856848 0.863735
vt 0.900067 0.863735
vt 0.905394 0.879006
vt 0.851521 0.879006
vt 0.427969 0.575033
vt 0.469363 0.574517
vt 0.474469 0.863792
vt 0.443904 0.864173
vt 0.328046 0.575033
vt 0.369440 0.574517
vt 0.374545 0.863792
vt 0.343981 0.864173
vt 0.874641 0.000000
vt 0.916038 0.000214
vt 0.916038 0.289534
vt 0.885471 0.289376
vt 0.849192 0.574517
vt 0.849192 0.575033
vt 0.838985 0.864173
vt 0.527892 0.575033
vt 0.517686 0.864173
vt 0.427969 0.575033
vt 0.417762 0.864173
vt 0.790306 0.879014
vt 0.844178 0.879490
vt 0.843913 0.909522
vt 0.790041 0.909047
vt 0.522878 0.879490
vt 0.469007 0.879014
vt 0.422955 0.879490
vt 0.369083 0.879014
vt 0.744401 0.839963
vt 0.744401 0.883182
vt 0.731539 0.888509
vt 0.731539 0.834635
vt 0.328046 0.849213
vt 0.328046 0.892432
vt 0.315184 0.897760
vt 0.315184 0.843886
vt 0.731539 0.839963
vt 0.731539 0.883182
vt 0.718677 0.888509
vt 0.718677 0.834635
vt 0.328046 0.795340
vt 0.328046 0.838558
vt 0.315184 0.843886
vt 0.315184 0.790012
vt 0.000000 0.937623
vt 0.000000 0.883749
vt 0.012245 0.888821
vt 0.012245 0.932551
vt 0.522613 0.909523
vt 0.468742 0.909047
vt 0.422690 0.909523
vt 0.368818 0.909047
vt 0.752206 0.879490
vt 0.751941 0.909523
vt 0.430906 0.879490
vt 0.430641 0.909523
vt 0.330983 0.879490
vt 0.330718 0.909523
vt 0.718677 0.833996
vt 0.718677 0.795893
vt 0.748704 0.796532
vt 0.748704 0.834635
vt 0.905394 0.909040
vt 0.851521 0.909040
vt 0.527892 0.870544
vt 0.580679 0.848679
vt 0.558814 0.901466
vt 0.311802 0.736138
vt 0.311802 0.682264
vt 0.328046 0.687336
vt 0.328046 0.731066
vt 0.311802 0.628391
vt 0.311802 0.574517
vt 0.328046 0.579589
vt 0.328046 0.623319
vt 0.311802 0.628390
vt 0.328046 0.633462
vt 0.328046 0.677192
vt 0.311802 0.790012
vt 0.311802 0.736138
vt 0.328046 0.741210
vt 0.328046 0.784940
vt 0.036734 0.883749
vt 0.036734 0.937623
vt 0.024490 0.932551
vt 0.024490 0.888821
vt 0.048979 0.888821
vt 0.048979 0.932551
vt 0.024490 0.883749
vt 0.024490 0.937623
vt 0.012245 0.888821
vt 0.592732 0.795893
vt 0.684429 0.795893
vt 0.749269 0.731053
vt 0.749268 0.639356
vt 0.684429 0.574517
vt 0.592732 0.574517
vt 0.602544 0.901466
vt 0.633466 0.870544
vt 0.633466 0.826814
vt 0.602544 0.795893
vt 0.558814 0.795893
vt 0.527892 0.826814

# vertex normals
vn 0.382684 -0.000000 -0.923879
vn 0.923880 -0.000000 -0.382683
vn 0.923880 0.000000 0.382683
vn 0.382683 0.000000 0.923880
vn -0.382683 0.000000 0.923880
vn -0.923880 0.000000 0.382683
vn -0.921994 0.063853 -0.381903
vn -0.923880 -0.000000 -0.382683
vn -0.382684 -0.000000 -0.923879
vn 0.000000 -1.000000 0.000000
vn 0.269755 0.709302 -0.651247
vn 0.651247 0.709302 -0.269755
vn 0.651247 0.709302 0.269755
vn 0.269755 0.709303 0.651247
vn -0.269755 0.709303 0.651247
vn -0.651247 0.709302 0.269755
vn -0.651247 0.709302 -0.269755
vn -0.269755 0.709302 -0.651247
vn 0.246466 -0.764986 -0.595021
vn 0.595021 -0.764986 -0.246466
vn 0.595021 -0.764986 0.246466
vn 0.246466 -0.764986 0.595021
vn -0.246466 -0.764986 0.595021
vn -0.595021 -0.764986 0.246466
vn -0.595021 -0.764986 -0.246466
vn -0.246466 -0.764987 -0.595021
vn -0.294866 -0.637418 -0.711865
vn -0.381903 0.063853 0.921994
vn 0.921994 0.063853 0.381903
vn 0.381903 0.063853 -0.921994
vn -0.381903 0.063853 -0.921994
vn -0.921994 0.063853 0.381903
vn 0.381902 0.063853 0.921994
vn 0.921994 0.063853 -0.381902
vn -0.923880 0.000000 0.382683
vn -0.711866 -0.637419 0.294865
vn 0.294865 -0.637419 0.711866
vn 0.711865 -0.637419 -0.294864
vn -0.711866 -0.637419 -0.294864
vn -0.294865 -0.637419 0.711865
vn 0.711865 -0.637419 0.294864
vn 0.294865 -0.637419 -0.711865
vn 0.303810 0.608060 -0.733459
vn 0.382683 0.000000 0.923880
vn 0.923880 -0.000000 -0.382683
vn -0.923880 -0.000000 -0.382683
vn -0.382683 0.000000 0.923880
vn 0.923880 0.000000 0.382683
vn 0.382683 -0.000000 -0.923880
vn -0.382683 -0.000000 -0.923880
vn 0.000000 1.000000 -0.000000
vn -0.303809 0.608060 -0.733460
vn -0.733459 0.608061 0.303809
vn 0.303810 0.608060 0.733459
vn 0.733459 0.608061 -0.303809
vn -0.733460 0.608059 -0.303809
vn -0.303809 0.608060 0.733460
vn 0.733460 0.608059 0.303808
vn -0.000000 -1.000000 0.000000
vn 0.000000 -1.000000 0.000000
vn -0.000000 -1.000000 0.000000
vn 0.000000 -1.000000 0.000000
vn 0.000002 1.000000 -0.000000
vn 0.000000 1.000000 -0.000000
vn -0.000000 1.000000 -0.000000
vn -0.000002 1.000000 -0.000000
vn 0.000005 1.000000 -0.000000

# Mesh
g Cylinder
usemtl Material.001
f 4/4/1 1/1/1 2/2/1
f 2/2/1 3/3/1 4/4/1
f 6/6/2 4/4/2 3/3/2
f 3/3/2 5/5/2 6/6/2
f 8/8/3 6/6/3 5/5/3
f 5/5/3 7/7/3 8/8/3
f 10/12/4 8/9/4 7/10/4
f 7/10/4 9/11/4 10/12/4
f 12/14/5 10/12/5 9/11/5
f 9/11/5 11/13/5 12/14/5
f 14/18/6 12/15/6 11/16/6
f 11/16/6 13/17/6 14/18/6
f 18/22/7 15/19/7 16/20/7
f 16/20/7 17/21/7 18/22/7
f 20/26/8 14/23/8 13/24/8
f 13/24/8 19/25/8 20/26/8
f 1/28/9 20/26/9 19/25/9
f 19/25/9 2/27/9 1/28/9
f 21/29/10 22/30/10 23/31/10
f 2/35/11 24/32/11 25/33/11
f 25/33/11 3/34/11 2/35/11
f 3/39/12 25/36/12 26/37/12
f 26/37/12 5/38/12 3/39/12
f 5/43/13 26/40/13 27/41/13
f 27/41/13 7/42/13 5/43/13
f 7/47/14 27/44/14 28/45/14
f 28/45/14 9/46/14 7/47/14
f 9/51/15 28/48/15 29/49/15
f 29/49/15 11/50/15 9/51/15
f 11/55/16 29/52/16 16/53/16
f 16/53/16 13/54/16 11/55/16
f 13/59/17 16/56/17 15/57/17
f 15/57/17 19/58/17 13/59/17
f 19/63/18 15/60/18 24/61/18
f 24/61/18 2/62/18 19/63/18
f 4/67/19 30/64/19 21/65/19
f 21/65/19 1/66/19 4/67/19
f 6/69/20 31/68/20 30/64/20
f 30/64/20 4/67/20 6/69/20
f 8/71/21 32/70/21 31/68/21
f 31/68/21 6/69/21 8/71/21
f 10/73/22 33/72/22 32/70/22
f 32/70/22 8/71/22 10/73/22
f 12/75/23 34/74/23 33/72/23
f 33/72/23 10/73/23 12/75/23
f 14/77/24 35/76/24 34/74/24
f 34/74/24 12/75/24 14/77/24
f 20/79/25 23/78/25 35/76/25
f 35/76/25 14/77/25 20/79/25
f 1/66/26 21/65/26 23/78/26
f 23/78/26 20/79/26 1/66/26
f 38/83/27 36/80/27 18/81/27
f 18/81/27 37/82/27 38/83/27
f 40/87/28 29/84/28 28/85/28
f 28/85/28 39/86/28 40/87/28
f 42/91/29 27/88/29 26/89/29
f 26/89/29 41/90/29 42/91/29
f 43/95/30 25/92/30 24/93/30
f 24/93/30 36/94/30 43/95/30
f 36/80/31 24/96/31 15/39/31
f 15/39/31 18/81/31 36/80/31
f 17/21/32 16/20/32 29/97/32
f 29/97/32 40/98/32 17/21/32
f 39/86/33 28/85/33 27/99/33
f 27/99/33 42/100/33 39/86/33
f 41/90/34 26/89/34 25/101/34
f 25/101/34 43/102/34 41/90/34
f 47/106/35 44/103/35 45/104/35
f 45/104/35 46/105/35 47/106/35
f 44/103/36 17/21/36 40/98/36
f 40/98/36 45/104/36 44/103/36
f 49/108/37 39/86/37 42/100/37
f 42/100/37 48/107/37 49/108/37
f 51/110/38 41/90/38 43/102/38
f 43/102/38 50/109/38 51/110/38
f 37/114/39 18/111/39 17/112/39
f 17/112/39 44/113/39 37/114/39
f 45/118/40 40/115/40 39/116/40
f 39/116/40 49/117/40 45/118/40
f 48/122/41 42/119/41 41/120/41
f 41/120/41 51/121/41 48/122/41
f 50/126/42 43/123/42 36/124/42
f 36/124/42 38/125/42 50/126/42
f 55/130/43 52/127/43 53/128/43
f 53/128/43 54/129/43 55/130/43
f 57/132/44 49/108/44 48/107/44
f 48/107/44 56/131/44 57/132/44
f 58/134/45 51/110/45 50/109/45
f 50/109/45 52/133/45 58/134/45
f 59/136/46 37/135/46 44/103/46
f 44/103/46 47/106/46 59/136/46
f 46/138/47 45/137/47 49/108/47
f 49/108/47 57/132/47 46/138/47
f 56/140/48 48/139/48 51/110/48
f 51/110/48 58/134/48 56/140/48
f 52/144/49 50/141/49 38/142/49
f 38/142/49 53/143/49 52/144/49
f 53/146/50 38/83/50 37/82/50
f 37/82/50 59/145/50 53/146/50
f 55/147/51 60/148/51 61/149/51
f 54/153/52 53/150/52 59/151/52
f 59/151/52 62/152/52 54/153/52
f 64/157/53 47/154/53 46/155/53
f 46/155/53 63/156/53 64/157/53
f 66/160/54 57/151/54 56/158/54
f 56/158/54 65/159/54 66/160/54
f 61/164/55 58/161/55 52/162/55
f 52/162/55 55/163/55 61/164/55
f 62/168/56 59/165/56 47/166/56
f 47/166/56 64/167/56 62/168/56
f 63/170/57 46/166/57 57/165/57
f 57/165/57 66/169/57 63/170/57
f 65/173/58 56/171/58 58/172/58
f 58/172/58 61/130/58 65/173/58
f 23/31/10 22/30/10 35/174/59
f 35/174/59 22/30/10 34/175/10
f 34/175/10 22/30/10 33/176/10
f 33/176/10 22/30/10 32/177/60
f 32/177/60 22/30/10 31/178/61
f 31/178/61 22/30/10 30/179/62
f 30/179/62 22/30/10 21/29/10
f 61/149/51 60/148/51 65/180/63
f 65/180/63 60/148/51 66/181/64
f 66/181/64 60/148/51 63/182/64
f 63/182/64 60/148/51 64/183/65
f 64/183/65 60/148/51 62/184/66
f 62/184/66 60/148/51 54/185/67
f 54/185/67 60/148/51 55/147/51
